<?xml version="1.0" encoding="UTF-8" standalone="no"?>
<!DOCTYPE svg PUBLIC "-//W3C//DTD SVG 1.1//EN" "http://www.w3.org/Graphics/SVG/1.1/DTD/svg11.dtd">
<svg width="100%" height="100%" viewBox="0 0 404 109" version="1.1" xmlns="http://www.w3.org/2000/svg" xmlns:xlink="http://www.w3.org/1999/xlink" xml:space="preserve" xmlns:serif="http://www.serif.com/" style="fill-rule:evenodd;clip-rule:evenodd;stroke-linejoin:round;stroke-miterlimit:2;">
    <g transform="matrix(1,0,0,1,-2001,-371)">
        <g id="xoryves" transform="matrix(1,0,0,1,1653.54,-342.52)">
            <g transform="matrix(1,0,0,1,-1653.54,-1062.99)">
                <path d="M2007.87,1877.95L2185.04,1877.95L2220.47,1807.09" style="fill:none;stroke:rgb(198,159,84);stroke-width:4.17px;stroke-linejoin:miter;stroke-miterlimit:3;"/>
            </g>
            <g transform="matrix(1,0,0,1,-1653.54,-1062.99)">
                <path d="M2196.85,1807.09L2173.23,1807.09L2173.23,1854.33" style="fill:none;stroke:rgb(198,159,84);stroke-width:4.17px;stroke-linejoin:miter;stroke-miterlimit:3;"/>
            </g>
            <g transform="matrix(1,0,0,1,-1653.54,-1062.99)">
                <path d="M2007.87,1783.47L2078.74,1854.33L2149.61,1854.33L2149.61,1807.09L2102.36,1807.09L2102.36,1842.5" style="fill:none;stroke:rgb(198,159,84);stroke-width:4.17px;stroke-linejoin:miter;stroke-miterlimit:3;"/>
            </g>
            <g transform="matrix(1,0,0,1,-1653.54,-1062.99)">
                <path d="M2232.28,1807.09L2244.09,1854.33L2267.72,1807.09L2314.96,1807.09" style="fill:none;stroke:rgb(198,159,84);stroke-width:4.17px;stroke-linejoin:miter;stroke-miterlimit:3;"/>
            </g>
            <g transform="matrix(1,0,0,1,-1653.54,-1062.99)">
                <path d="M2255.91,1854.33L2303.15,1854.33" style="fill:none;stroke:rgb(198,159,84);stroke-width:4.17px;stroke-linejoin:miter;stroke-miterlimit:3;"/>
            </g>
            <g transform="matrix(1,0,0,1,-1653.54,-1062.99)">
                <path d="M2267.72,1830.71L2291.34,1830.71" style="fill:none;stroke:rgb(198,159,84);stroke-width:4.17px;stroke-linejoin:miter;stroke-miterlimit:3;"/>
            </g>
            <g transform="matrix(1,0,0,1,-1653.54,-1062.99)">
                <path d="M2220.47,1877.95L2314.96,1877.95L2350.39,1783.47L2397.64,1783.47" style="fill:none;stroke:rgb(198,159,84);stroke-width:4.17px;stroke-linejoin:miter;stroke-miterlimit:3;"/>
            </g>
            <g transform="matrix(1,0,0,1,-1653.54,-1062.99)">
                <path d="M2007.87,1854.33L2037.3,1824.91" style="fill:none;stroke:rgb(198,159,84);stroke-width:4.17px;stroke-linejoin:miter;stroke-miterlimit:3;"/>
            </g>
            <g transform="matrix(1,0,0,1,-1653.54,-1062.99)">
                <path d="M2049.5,1812.71L2078.74,1783.47L2326.77,1783.47" style="fill:none;stroke:rgb(198,159,84);stroke-width:4.17px;stroke-linejoin:miter;stroke-miterlimit:3;"/>
            </g>
        </g>
    </g>
</svg>
